<svg version="1.2" xmlns="http://www.w3.org/2000/svg" viewBox="0 0 100 100" width="100" height="100">
	<style>
		.s0 { fill: #fe676e } 
		.s1 { fill: #febc26 } 
		.s2 { fill: #fffffe } 
		.s3 { fill: #a5c5d9 } 
	</style>
	<g id="Background">
		<path id="Path 1" class="s0" d="m43.17 8.54c-1.47 0.26-4.17 0.94-6 1.5-1.84 0.57-4.39 1.56-5.67 2.21-1.28 0.65-3.31 1.82-4.5 2.6-1.19 0.79-3.29 2.39-4.67 3.56-1.37 1.17-3.46 3.32-4.63 4.78-1.18 1.45-2.67 3.47-3.32 4.48-0.64 1.01-1.73 3.03-2.41 4.5-0.68 1.46-1.63 3.94-2.1 5.5-0.46 1.55-1.08 4.18-1.36 5.83-0.29 1.65-0.52 4.57-0.52 6.5 0 1.92 0.23 4.85 0.52 6.5 0.28 1.65 0.9 4.27 1.36 5.83 0.47 1.56 1.42 4.04 2.1 5.5 0.69 1.47 1.78 3.49 2.43 4.5 0.64 1.01 2.13 3.03 3.3 4.48 1.17 1.46 3.26 3.61 4.63 4.78 1.38 1.17 3.55 2.82 4.84 3.66 1.28 0.85 3.53 2.1 5 2.78 1.46 0.68 3.94 1.63 5.5 2.1 1.55 0.46 4.18 1.08 5.83 1.36 1.65 0.29 4.57 0.52 6.5 0.52 1.92 0 4.85-0.23 6.5-0.52 1.65-0.28 4.27-0.9 5.83-1.36 1.56-0.47 4.04-1.42 5.5-2.1 1.47-0.68 3.72-1.93 5-2.78 1.29-0.84 3.46-2.49 4.84-3.66 1.37-1.17 3.46-3.32 4.63-4.78 1.17-1.45 2.66-3.47 3.3-4.48 0.65-1.01 1.74-3.03 2.43-4.5 0.68-1.46 1.63-3.94 2.1-5.5 0.46-1.56 1.08-4.18 1.36-5.83 0.29-1.65 0.52-4.58 0.52-6.5 0-1.93-0.23-4.85-0.52-6.5-0.28-1.65-0.9-4.28-1.36-5.83-0.47-1.56-1.42-4.04-2.1-5.5-0.68-1.47-1.93-3.72-2.78-5-0.84-1.29-2.49-3.46-3.66-4.84-1.17-1.37-3.32-3.46-4.78-4.63-1.45-1.17-3.47-2.66-4.48-3.3-1.01-0.65-3.03-1.74-4.5-2.43-1.46-0.68-3.94-1.63-5.5-2.1-1.56-0.46-4.18-1.08-5.83-1.36-1.65-0.29-4.73-0.5-6.83-0.48-2.11 0.01-5.04 0.24-6.5 0.51z"/>
		<path id="Path 2" class="s1" d="m46.33 11.15c-0.27 0.07-1.62 0.3-3 0.53-1.37 0.22-3.7 0.77-5.16 1.23-1.47 0.46-3.95 1.48-5.5 2.27-1.56 0.78-3.96 2.22-5.34 3.19-1.37 0.97-3.55 2.82-4.85 4.11-1.29 1.3-3.14 3.48-4.11 4.85-0.97 1.38-2.37 3.7-3.11 5.17-0.75 1.47-1.69 3.64-2.1 4.83-0.41 1.19-1.02 3.44-1.36 5-0.44 2.03-0.61 4.21-0.61 7.67 0 3.46 0.17 5.64 0.61 7.67 0.34 1.56 0.95 3.81 1.36 5 0.41 1.19 1.35 3.36 2.1 4.83 0.74 1.47 2.14 3.79 3.11 5.17 0.97 1.37 2.82 3.55 4.11 4.85 1.3 1.29 3.48 3.14 4.85 4.11 1.38 0.97 3.7 2.37 5.17 3.11 1.47 0.75 3.64 1.69 4.83 2.1 1.2 0.41 3.45 1.02 5 1.36 2.03 0.44 4.21 0.61 7.67 0.61 3.46 0 5.64-0.17 7.67-0.61 1.56-0.34 3.81-0.95 5-1.36 1.19-0.41 3.36-1.35 4.83-2.1 1.47-0.74 3.79-2.14 5.17-3.11 1.37-0.97 3.55-2.82 4.85-4.11 1.29-1.3 3.14-3.48 4.11-4.85 0.97-1.38 2.37-3.7 3.11-5.17 0.75-1.47 1.69-3.64 2.1-4.83 0.41-1.19 1.02-3.44 1.36-5 0.44-2.03 0.61-4.21 0.61-7.67 0-3.46-0.17-5.64-0.61-7.67-0.34-1.56-0.95-3.81-1.36-5-0.41-1.19-1.35-3.36-2.1-4.83-0.74-1.47-2.14-3.79-3.11-5.17-0.97-1.37-2.82-3.55-4.11-4.85-1.3-1.29-3.48-3.14-4.85-4.11-1.38-0.97-3.78-2.4-5.34-3.19-1.56-0.78-3.81-1.74-5-2.13-1.19-0.38-3.29-0.94-4.66-1.24-1.38-0.29-4.38-0.59-6.67-0.66-2.29-0.06-4.39-0.06-4.67 0z"/>
		<path id="Path 3" class="s2" d="m43.5 14.52c-1.47 0.28-3.75 0.88-5.08 1.33-1.33 0.45-3.28 1.25-4.34 1.78-1.05 0.53-3.04 1.73-4.41 2.66-1.38 0.94-3.68 2.87-5.11 4.29-1.44 1.42-3.42 3.79-4.4 5.25-0.98 1.47-2.34 3.87-3.02 5.34-0.67 1.46-1.61 4.09-2.08 5.83-0.75 2.82-0.85 3.8-0.85 9 0 5.19 0.1 6.18 0.85 9 0.46 1.74 1.44 4.44 2.18 6 0.73 1.56 2.1 3.96 3.04 5.33 0.94 1.38 2.88 3.68 4.3 5.11 1.42 1.44 3.79 3.42 5.25 4.4 1.47 0.98 3.87 2.34 5.34 3.02 1.46 0.67 4.09 1.61 5.83 2.08 2.82 0.75 3.8 0.85 9 0.85 5.2 0 6.18-0.1 9-0.85 1.74-0.47 4.37-1.41 5.83-2.08 1.47-0.68 3.87-2.04 5.34-3.02 1.46-0.98 3.83-2.96 5.25-4.4 1.42-1.43 3.36-3.73 4.3-5.11 0.94-1.37 2.31-3.77 3.04-5.33 0.74-1.56 1.72-4.26 2.18-6 0.75-2.82 0.85-3.81 0.85-9 0-5.2-0.1-6.18-0.85-9-0.47-1.74-1.41-4.37-2.08-5.83-0.68-1.47-2.04-3.87-3.02-5.34-0.98-1.46-2.96-3.83-4.4-5.25-1.43-1.42-3.73-3.36-5.11-4.3-1.37-0.94-3.77-2.31-5.33-3.04-1.56-0.74-4.26-1.7-6-2.15-2.45-0.64-4.25-0.85-8-0.95-3.4-0.09-5.62 0.03-7.5 0.38z"/>
		<path id="Path 4" class="s3" d="m28.75 27c-0.6 0.37-1.38 1.15-1.75 1.75-0.59 0.96-0.66 1.67-0.67 6.33v5.25l4.84-0.16 0.16-8.84 8.84-0.16 0.16-4.84c-9.91 0.01-10.62 0.08-11.58 0.67zm30.92 1.83v2.5h9v9l4.83-0.16c0.17-9.36 0.1-10.15-0.44-11.17-0.35-0.64-1.14-1.51-1.76-1.93-1.06-0.71-1.47-0.75-6.38-0.75l-5.25 0.01zm-15.09 10.02c-1.67 0.53-3.6 1.51-5.5 2.78-1.6 1.08-4.15 3.26-5.66 4.83-1.52 1.58-2.75 3.14-2.75 3.46-0.01 0.32 0.87 1.56 1.94 2.75 1.07 1.19 2.91 2.94 4.08 3.88 1.18 0.94 3.27 2.32 4.64 3.06 1.38 0.74 3.48 1.59 4.67 1.9 1.55 0.4 2.93 0.51 4.83 0.39 1.47-0.1 3.57-0.5 4.67-0.88 1.1-0.39 2.98-1.29 4.17-2.01 1.19-0.71 3.21-2.19 4.5-3.28 1.28-1.1 2.97-2.8 3.76-3.78 0.78-0.98 1.42-1.93 1.41-2.12 0-0.18-0.87-1.3-1.92-2.48-1.06-1.18-3.05-3.03-4.42-4.12-1.38-1.09-3.48-2.47-4.67-3.07-1.19-0.6-2.99-1.33-4-1.63-1.06-0.31-2.96-0.53-4.5-0.52-1.86 0.02-3.44 0.27-5.25 0.84zm-18.26 26.07c0 4.92 0.04 5.32 0.76 6.41 0.42 0.64 1.29 1.43 1.93 1.75 0.95 0.48 2.07 0.59 6.24 0.59h5.08v-5h-9v-9h-5zm42.27-0.84l-0.09 4.42-8.83 0.17v5c10.3-0.16 10.93-0.24 11.83-0.87 0.55-0.39 1.26-1.25 1.58-1.92 0.48-0.99 0.59-2.14 0.59-6.21v-5h-4.98z"/>
		<path id="Path 5" class="s2" d="m47.17 42.87c-0.74 0.27-1.9 1.04-2.59 1.73-0.69 0.68-1.48 1.91-1.75 2.73-0.28 0.83-0.5 2.1-0.51 2.84 0 0.79 0.38 2.07 0.92 3.16 0.68 1.35 1.37 2.13 2.59 2.93 0.96 0.62 2.31 1.18 3.17 1.29 0.96 0.13 2.1 0.01 3.17-0.32 1.08-0.34 2.16-1.02 3.09-1.96 0.84-0.84 1.64-2.06 1.92-2.94 0.27-0.82 0.5-1.87 0.5-2.33 0-0.46-0.24-1.51-0.52-2.33-0.29-0.83-0.93-2.02-1.43-2.65-0.49-0.63-1.65-1.49-2.56-1.91-1-0.46-2.27-0.76-3.17-0.75-0.83 0.01-2.1 0.24-2.83 0.51z"/>
		<path id="Path 6" class="s3" d="m47.34 44.11c-0.64 0.22-1.57 0.93-2.06 1.57-0.5 0.63-1.06 1.57-1.26 2.07-0.19 0.5-0.35 1.52-0.35 2.25 0 0.73 0.28 1.9 0.63 2.58 0.35 0.69 0.99 1.58 1.42 1.98 0.43 0.41 1.34 0.97 2.03 1.25 0.69 0.29 1.59 0.52 2 0.52 0.41 0 1.31-0.15 2-0.33 0.69-0.18 1.73-0.75 2.31-1.25 0.58-0.5 1.33-1.52 1.66-2.25 0.33-0.73 0.6-1.86 0.6-2.5 0-0.64-0.28-1.77-0.62-2.5-0.34-0.73-0.97-1.66-1.41-2.06-0.43-0.41-1.35-0.97-2.04-1.25-0.69-0.29-1.81-0.52-2.5-0.51-0.69 0.01-1.77 0.2-2.41 0.43z"/>
		<path id="Path 7" class="s2" d="m48.36 46.12c-0.63 0.23-1.33 0.71-1.56 1.07-0.23 0.35-0.58 1.06-0.78 1.56q-0.35 0.92-0.04 2.17c0.18 0.68 0.67 1.59 1.09 2.01 0.47 0.47 1.34 0.84 2.26 0.96 1.05 0.13 1.83 0.03 2.59-0.35 0.59-0.3 1.32-1.03 1.62-1.62 0.38-0.76 0.48-1.54 0.35-2.59-0.11-0.82-0.47-1.78-0.79-2.13-0.33-0.34-1.09-0.83-1.68-1.08-0.6-0.25-1.27-0.45-1.5-0.44-0.23 0.01-0.93 0.2-1.56 0.44z"/>
		<path id="Path 8" class="s3" d="m48.83 47.45c-0.6 0.26-1.16 0.85-1.41 1.49-0.23 0.58-0.32 1.32-0.2 1.64 0.12 0.32 0.53 0.93 0.91 1.35q0.71 0.75 1.8 0.75 1.1-0.02 1.92-0.85c0.52-0.53 0.82-1.22 0.83-1.91 0-0.71-0.26-1.34-0.75-1.8-0.42-0.39-1.06-0.8-1.43-0.9-0.37-0.1-1.12 0-1.67 0.23z"/>
		<path id="Path 9" class="s2" d="m49.21 48.31c-0.12 0.2-0.14 0.51-0.04 0.69 0.09 0.18 0.39 0.33 0.66 0.33 0.41 0 0.46 0.27 0.25 1.4-0.24 1.37-0.23 1.39 0.5 1 0.42-0.22 0.92-0.73 1.12-1.15 0.29-0.6 0.24-0.91-0.28-1.58-0.36-0.46-0.96-0.88-1.33-0.94-0.37-0.05-0.77 0.06-0.88 0.25z"/>
	</g>
</svg>